<svg width="28" height="29" viewBox="0 0 28 29" fill="none" xmlns="http://www.w3.org/2000/svg">
<path fill-rule="evenodd" clip-rule="evenodd" d="M5.22261 18.379C6.75597 16.1651 9.47161 14.5 13.9998 14.5C18.528 14.5 21.2437 16.1651 22.777 18.379C24.259 20.5187 24.495 22.9711 24.4997 24.3281C24.5045 25.6927 23.3999 26.5834 22.2675 26.5834H5.73218C4.59972 26.5834 3.49515 25.6927 3.49989 24.3281C3.50461 22.9711 3.74064 20.5187 5.22261 18.379Z" fill="#F2F2F2"/>
<path fill-rule="evenodd" clip-rule="evenodd" d="M13.9999 12.0834C16.5773 12.0834 18.6666 9.9194 18.6666 7.25002C18.6666 4.58064 16.5773 2.41669 13.9999 2.41669C11.4226 2.41669 9.33327 4.58064 9.33327 7.25002C9.33327 9.9194 11.4226 12.0834 13.9999 12.0834Z" fill="#F2F2F2"/>
</svg>
